<?xml version="1.0" encoding="UTF-8"?>
<svg version="1.1" viewBox="0 0 16 16" xmlns="http://www.w3.org/2000/svg" xmlns:xlink="http://www.w3.org/1999/xlink">
  <defs>
    <linearGradient id="d" x1="21.994" x2="20.917" y1="33.955" y2="15.815" gradientTransform="matrix(.3499 0 0 .34009 -.398 .273)" gradientUnits="userSpaceOnUse">
      <stop stop-color="#fffeff" stop-opacity=".333" offset="0"/>
      <stop stop-color="#fffeff" stop-opacity=".216" offset="1"/>
    </linearGradient>
  </defs>
  <path d="m15.5 8a7.5 7.5 0 1 1-15 0 7.5 7.5 0 1 1 15 0z" fill="#3465a4" stroke="#204a87"/>
  <path d="m14.5 8a6.5 6.499 0 1 1-13 0 6.5 6.499 0 1 1 13 0z" fill="none" opacity=".347" stroke="#fff"/>
  <path d="M14.777 7.658c0 3.683-3.623-2.131-6.534.132C5.4 10 1.037 11.935 1.037 8.252c0-3.77 3.042-7.267 6.832-7.267 3.789 0 6.909 2.99 6.909 6.673z" fill="url(#d)"/>
  <path d="M8 13c-.761 0-1.347-.575-1.347-1.322 0-.805.527-1.322 1.347-1.322s1.288.517 1.347 1.322C9.347 12.425 8.82 13 8 13zm-.82-3.39L6.83 3h2.34l-.35 6.61H7.122z" fill="#fff"/>
</svg>
