<?xml version="1.0" encoding="UTF-8"?>
<svg version="1.1" viewBox="0 0 16 16" xmlns="http://www.w3.org/2000/svg">
  <defs>
    <linearGradient id="d" x1="21.994" x2="20.917" y1="33.955" y2="15.815" gradientTransform="matrix(.3499 0 0 .34009 -.398 .273)" gradientUnits="userSpaceOnUse">
      <stop stop-color="#fffeff" stop-opacity=".333" offset="0"/>
      <stop stop-color="#fffeff" stop-opacity=".216" offset="1"/>
    </linearGradient>
  </defs>
  <path d="m15.5 8a7.5 7.5 0 1 1-15 0 7.5 7.5 0 1 1 15 0z" fill="#3465a4" stroke="#204a87"/>
  <path d="m14.5 8a6.5 6.499 0 1 1-13 0 6.5 6.499 0 1 1 13 0z" fill="none" opacity=".347" stroke="#fff"/>
  <path d="M14.777 7.658c0 3.683-3.623-2.131-6.534.132C5.4 10 1.037 11.935 1.037 8.252c0-3.77 3.042-7.267 6.832-7.267 3.789 0 6.909 2.99 6.909 6.673z" fill="url(#d)"/>
  <g transform="matrix(.43009 0 0 .43009 -1.9049 -1.9236)" fill="#fff" opacity=".9" aria-label="?">
    <path d="m25.691 26.899h-5.4989v-0.74639q0-1.2491 0.50267-2.2087 0.50267-0.97487 2.1173-2.4676l0.97487-0.88348q0.86825-0.79209 1.2643-1.4928 0.41128-0.70069 0.41128-1.4014 0-1.0663-0.73116-1.6603-0.73116-0.6093-2.0411-0.6093-1.2338 0-2.6657 0.5179-1.4318 0.50267-2.9856 1.508v-4.783q1.8431-0.63976 3.3664-0.94441 1.5232-0.30465 2.9399-0.30465 3.7167 0 5.6665 1.5232 1.9497 1.508 1.9497 4.4174 0 1.4928-0.59406 2.6809-0.59406 1.1729-2.0259 2.5286l-0.97487 0.86825q-1.0358 0.94441-1.3557 1.5232-0.31988 0.5636-0.31988 1.2491zm-5.4989 2.2544h5.4989v5.4227h-5.4989z" fill="#fff" stroke-width="9.0667"/>
  </g>
  <rect x="7.5" y="7.5" width="8" height="8" fill="#4e9a06" stroke="#336404"/>
  <path d="m11.5 9v5m-2.5-2.5h5" stroke="#fff"/>
</svg>
