<?xml version="1.0" encoding="UTF-8"?>
<svg version="1.1" viewBox="0 0 48 48" xmlns="http://www.w3.org/2000/svg" xmlns:xlink="http://www.w3.org/1999/xlink">
  <defs>
    <radialGradient id="d" cx="23.857" cy="40" r="17.143" gradientTransform="matrix(1 0 0 .5 0 20)" gradientUnits="userSpaceOnUse">
      <stop offset="0"/>
      <stop stop-opacity="0" offset="1"/>
    </radialGradient>
    <linearGradient id="f" x1="21.994" x2="20.917" y1="33.955" y2="15.815" gradientUnits="userSpaceOnUse">
      <stop stop-color="#fffeff" stop-opacity=".333" offset="0"/>
      <stop stop-color="#fffeff" stop-opacity=".216" offset="1"/>
    </linearGradient>
  </defs>
  <path transform="matrix(1.0706 0 0 .525 -.893 22.5)" d="M41 40a17.143 8.571 0 1 1-34.286 0A17.143 8.571 0 1 1 41 40z" display="block" fill="url(#d)" opacity=".6" overflow="visible"/>
  <path d="m45.5 23a21.5 21.5 0 1 1-43 0 21.5 21.5 0 1 1 43 0z" fill="#3465a4" stroke="#204a87" stroke-opacity=".973"/>
  <path transform="translate(1.818 .198) scale(.8561)" d="m49.902 26.635a23.991 23.991 0 1 1-47.983 0 23.991 23.991 0 1 1 47.983 0z" fill="none" opacity=".75" stroke="#fff" stroke-width="1.168"/>
  <g fill="#fff" opacity=".8" aria-label="?">
    <path d="m25.691 26.899h-5.4989v-0.74639q0-1.2491 0.50267-2.2087 0.50267-0.97487 2.1173-2.4676l0.97487-0.88348q0.86825-0.79209 1.2643-1.4928 0.41128-0.70069 0.41128-1.4014 0-1.0663-0.73116-1.6603-0.73116-0.6093-2.0411-0.6093-1.2338 0-2.6657 0.5179-1.4318 0.50267-2.9856 1.508v-4.783q1.8431-0.63976 3.3664-0.94441 1.5232-0.30465 2.9399-0.30465 3.7167 0 5.6665 1.5232 1.9497 1.508 1.9497 4.4174 0 1.4928-0.59406 2.6809-0.59406 1.1729-2.0259 2.5286l-0.97487 0.86825q-1.0358 0.94441-1.3557 1.5232-0.31988 0.5636-0.31988 1.2491zm-5.4989 2.2544h5.4989v5.4227h-5.4989z" fill="#fff" stroke-width="3.8995"/>
  </g>
  <path transform="translate(-.072 .02) scale(1.003)" d="M43.37 21.715c0 10.831-10.354-6.266-18.674.387-8.126 6.497-20.597 12.19-20.597 1.36 0-11.084 8.695-21.367 19.526-21.367 10.83 0 19.746 8.79 19.746 19.62z" fill="url(#f)"/>
</svg>
